<?xml version="1.0" encoding="iso-8859-1"?>
<!-- Generator: Adobe Illustrator 19.0.0, SVG Export Plug-In . SVG Version: 6.00 Build 0)  -->
<svg xmlns="http://www.w3.org/2000/svg" xmlns:xlink="http://www.w3.org/1999/xlink" version="1.1" id="Layer_1" x="0px" y="0px" viewBox="0 0 512 512" style="enable-background:new 0 0 512 512;" xml:space="preserve" width="512px" height="512px">
<g>
	<g>
		<path d="M459.216,184.742V77.791L348.234,0H52.783v184.742H26.392v205.856h26.392V512h406.433V390.598h26.392V184.742H459.216z     M353.649,23.151l72.278,50.746h-72.278V23.151z M68.618,15.835h269.196v73.897h105.567v95.01H68.618V15.835z M443.381,496.165    H68.618V390.598h374.763V496.165z M469.773,374.763H42.227V200.577h427.546V374.763z" fill="#FFFFFF"/>
	</g>
</g>
<g>
	<g>
		<rect x="113.485" y="432.825" width="285.031" height="15.835" fill="#FFFFFF"/>
	</g>
</g>
<g>
	<g>
		<rect x="435.464" y="216.412" width="21.113" height="15.835" fill="#FFFFFF"/>
	</g>
</g>
<g>
	<g>
		<rect x="435.464" y="343.093" width="21.113" height="15.835" fill="#FFFFFF"/>
	</g>
</g>
<g>
	<g>
		<rect x="55.423" y="343.093" width="21.113" height="15.835" fill="#FFFFFF"/>
	</g>
</g>
<g>
	<g>
		<rect x="55.423" y="216.412" width="21.113" height="15.835" fill="#FFFFFF"/>
	</g>
</g>
<g>
	<g>
		<path d="M208.549,50.144h-95.118L92.74,78.36l68.25,76.006l68.25-76.006L208.549,50.144z M160.99,130.664l-27.276-30.376h54.553    L160.99,130.664z M119.494,84.454l-6.377-7.103l8.339-11.372h79.068l8.339,11.372l-6.376,7.103H119.494z" fill="#FFFFFF"/>
	</g>
</g>
<g>
	<g>
		<path d="M96.573,279.522H83.044c-4.958,0-8.994-4.035-8.994-8.994s4.035-8.993,8.994-8.993h13.528    c4.958,0,8.994,4.034,8.994,8.993h15.835c0-13.69-11.138-24.828-24.829-24.828H83.044c-13.691,0-24.828,11.138-24.828,24.828    c0,13.691,11.138,24.829,24.829,24.829h13.527c4.958,0,8.994,4.035,8.994,8.994s-4.035,8.994-8.994,8.994H83.044    c-4.958,0-8.994-4.035-8.994-8.994H58.215c0,13.691,11.138,24.829,24.829,24.829h13.528c13.691,0,24.829-11.138,24.829-24.829    S110.264,279.522,96.573,279.522z" fill="#FFFFFF"/>
	</g>
</g>
<g>
	<g>
		<polygon points="169.378,279.026 192.388,256.016 181.191,244.817 153.072,272.936 153.072,242.804 137.237,242.804     137.237,332.536 153.072,332.536 153.072,295.332 157.53,290.874 178.194,333.364 192.435,326.439   " fill="#FFFFFF"/>
	</g>
</g>
<g>
	<g>
		<polygon points="242.912,261.535 242.912,245.7 201.172,245.7 201.172,329.179 242.912,329.179 242.912,313.344 217.007,313.344     217.007,295.356 242.912,295.356 242.912,279.521 217.007,279.521 217.007,261.535   " fill="#FFFFFF"/>
	</g>
</g>
<g>
	<g>
		<polygon points="250.722,245.443 250.722,261.278 271.963,261.278 271.963,332.536 287.798,332.536 287.798,261.278     308.783,261.278 308.783,245.443   " fill="#FFFFFF"/>
	</g>
</g>
<g>
	<g>
		<path d="M344.707,315.32c-9.621,0-17.449-7.285-17.449-16.24v-19.327c0-8.955,7.828-16.241,17.449-16.241    s17.449,7.285,17.449,16.241h15.835c0-17.687-14.931-32.076-33.284-32.076s-33.284,14.39-33.284,32.076v19.327    c0,17.687,14.931,32.075,33.284,32.075c18.354,0,33.284-14.39,33.284-32.077h-15.835    C362.156,308.034,354.328,315.32,344.707,315.32z" fill="#FFFFFF"/>
	</g>
</g>
<g>
	<g>
		<polygon points="437.949,246.853 437.949,279.521 406.433,279.521 406.433,246.853 390.598,246.853 390.598,328.027     406.433,328.027 406.433,295.356 437.949,295.356 437.949,328.027 453.784,328.027 453.784,246.853   " fill="#FFFFFF"/>
	</g>
</g>
<g>
</g>
<g>
</g>
<g>
</g>
<g>
</g>
<g>
</g>
<g>
</g>
<g>
</g>
<g>
</g>
<g>
</g>
<g>
</g>
<g>
</g>
<g>
</g>
<g>
</g>
<g>
</g>
<g>
</g>
</svg>
